<svg xmlns="http://www.w3.org/2000/svg" viewBox="0 0 200 200" width="200" height="200">
  <defs>
    <linearGradient id="docGradient" x1="0%" y1="0%" x2="100%" y2="100%">
      <stop offset="0%" style="stop-color:#ec4899;stop-opacity:0.8" />
      <stop offset="100%" style="stop-color:#a855f7;stop-opacity:0.8" />
    </linearGradient>
    <filter id="docGlow">
      <feGaussianBlur stdDeviation="3" result="coloredBlur"/>
      <feMerge> 
        <feMergeNode in="coloredBlur"/>
        <feMergeNode in="SourceGraphic"/>
      </feMerge>
    </filter>
  </defs>
  
  <!-- Background -->
  <circle cx="100" cy="100" r="95" fill="url(#docGradient)" opacity="0.1"/>
  
  <!-- Document Processing icon -->
  <g filter="url(#docGlow)">
    <!-- Main document -->
    <rect x="50" y="30" width="80" height="110" fill="#ffffff" stroke="#ec4899" stroke-width="2" rx="4"/>
    
    <!-- Document corner fold -->
    <path d="M120 30 L120 45 L135 45 Z" fill="#ec4899" opacity="0.3"/>
    <path d="M120 30 L120 45 L135 45" fill="none" stroke="#ec4899" stroke-width="2"/>
    
    <!-- Document content lines -->
    <line x1="60" y1="50" x2="110" y2="50" stroke="#ec4899" stroke-width="2" opacity="0.7"/>
    <line x1="60" y1="60" x2="120" y2="60" stroke="#ec4899" stroke-width="2" opacity="0.7"/>
    <line x1="60" y1="70" x2="105" y2="70" stroke="#ec4899" stroke-width="2" opacity="0.7"/>
    <line x1="60" y1="80" x2="115" y2="80" stroke="#ec4899" stroke-width="2" opacity="0.7"/>
    <line x1="60" y1="90" x2="100" y2="90" stroke="#ec4899" stroke-width="2" opacity="0.7"/>
    
    <!-- AI processing symbols -->
    <circle cx="70" cy="110" r="8" fill="none" stroke="#a855f7" stroke-width="2"/>
    <path d="M70 105 L70 115 M65 110 L75 110" stroke="#a855f7" stroke-width="2"/>
    
    <circle cx="100" cy="110" r="8" fill="none" stroke="#a855f7" stroke-width="2"/>
    <polygon points="100,105 105,110 100,115 95,110" fill="none" stroke="#a855f7" stroke-width="2"/>
    
    <!-- Processing arrows -->
    <path d="M85 110 L90 110" stroke="#a855f7" stroke-width="2" stroke-linecap="round"/>
    <path d="M115 110 L120 110" stroke="#a855f7" stroke-width="2" stroke-linecap="round"/>
    
    <!-- Output document (processed) -->
    <rect x="70" y="150" width="60" height="40" fill="#ffffff" stroke="#10b981" stroke-width="2" rx="4"/>
    <line x1="75" y1="160" x2="120" y2="160" stroke="#10b981" stroke-width="1" opacity="0.7"/>
    <line x1="75" y1="167" x2="115" y2="167" stroke="#10b981" stroke-width="1" opacity="0.7"/>
    <line x1="75" y1="174" x2="125" y2="174" stroke="#10b981" stroke-width="1" opacity="0.7"/>
    <line x1="75" y1="181" x2="110" y2="181" stroke="#10b981" stroke-width="1" opacity="0.7"/>
    
    <!-- Processing flow arrow -->
    <path d="M100 125 L100 145 M95 140 L100 145 L105 140" stroke="#a855f7" stroke-width="2" stroke-linecap="round"/>
  </g>
</svg> 