<svg xmlns="http://www.w3.org/2000/svg" viewBox="0 0 200 200" width="200" height="200">
  <!-- Background circle with gradient -->
  <defs>
    <linearGradient id="knowledgeGradient" x1="0%" y1="0%" x2="100%" y2="100%">
      <stop offset="0%" style="stop-color:#a855f7;stop-opacity:0.8" />
      <stop offset="100%" style="stop-color:#10b981;stop-opacity:0.8" />
    </linearGradient>
    <filter id="glow">
      <feGaussianBlur stdDeviation="3" result="coloredBlur"/>
      <feMerge> 
        <feMergeNode in="coloredBlur"/>
        <feMergeNode in="SourceGraphic"/>
      </feMerge>
    </filter>
  </defs>
  
  <!-- Background -->
  <circle cx="100" cy="100" r="95" fill="url(#knowledgeGradient)" opacity="0.1"/>
  
  <!-- Main book/folder icon -->
  <g filter="url(#glow)">
    <!-- Folder base -->
    <path d="M30 60 L170 60 L170 160 L30 160 Z" fill="#a855f7" opacity="0.8" stroke="#a855f7" stroke-width="2"/>
    <path d="M30 60 L80 60 L90 45 L130 45 L140 60 L170 60" fill="none" stroke="#a855f7" stroke-width="2"/>
    
    <!-- Document stack -->
    <rect x="45" y="75" width="110" height="70" fill="#ffffff" opacity="0.9" rx="4"/>
    <rect x="50" y="80" width="100" height="60" fill="#ffffff" opacity="0.7" rx="4"/>
    
    <!-- Content lines -->
    <line x1="60" y1="95" x2="130" y2="95" stroke="#a855f7" stroke-width="2" opacity="0.7"/>
    <line x1="60" y1="105" x2="120" y2="105" stroke="#a855f7" stroke-width="2" opacity="0.7"/>
    <line x1="60" y1="115" x2="135" y2="115" stroke="#a855f7" stroke-width="2" opacity="0.7"/>
    <line x1="60" y1="125" x2="115" y2="125" stroke="#a855f7" stroke-width="2" opacity="0.7"/>
    
    <!-- Upload arrow -->
    <path d="M165 40 L165 25 M155 30 L165 20 L175 30" fill="none" stroke="#10b981" stroke-width="3" stroke-linecap="round"/>
  </g>
</svg> 