<svg xmlns="http://www.w3.org/2000/svg" viewBox="0 0 200 200" width="200" height="200">
  <defs>
    <linearGradient id="ragGradient" x1="0%" y1="0%" x2="100%" y2="100%">
      <stop offset="0%" style="stop-color:#3b82f6;stop-opacity:0.8" />
      <stop offset="100%" style="stop-color:#a855f7;stop-opacity:0.8" />
    </linearGradient>
    <filter id="ragGlow">
      <feGaussianBlur stdDeviation="3" result="coloredBlur"/>
      <feMerge> 
        <feMergeNode in="coloredBlur"/>
        <feMergeNode in="SourceGraphic"/>
      </feMerge>
    </filter>
  </defs>
  
  <!-- Background -->
  <circle cx="100" cy="100" r="95" fill="url(#ragGradient)" opacity="0.1"/>
  
  <!-- RAG Search Brain icon -->
  <g filter="url(#ragGlow)">
    <!-- Brain outline -->
    <path d="M70 50 Q60 40 50 50 Q40 60 45 70 Q40 80 50 90 Q45 100 55 110 Q60 120 75 115 Q85 125 100 120 Q115 125 125 115 Q140 120 145 110 Q155 100 150 90 Q160 80 155 70 Q160 60 150 50 Q140 40 130 50 Q120 40 110 45 Q100 40 90 45 Q80 40 70 50 Z" 
          fill="none" stroke="#3b82f6" stroke-width="3" opacity="0.8"/>
    
    <!-- Neural connections/nodes -->
    <circle cx="70" cy="70" r="4" fill="#3b82f6"/>
    <circle cx="100" cy="65" r="4" fill="#a855f7"/>
    <circle cx="130" cy="75" r="4" fill="#3b82f6"/>
    <circle cx="85" cy="90" r="4" fill="#a855f7"/>
    <circle cx="115" cy="95" r="4" fill="#3b82f6"/>
    
    <!-- Connections -->
    <line x1="70" y1="70" x2="100" y2="65" stroke="#3b82f6" stroke-width="2" opacity="0.6"/>
    <line x1="100" y1="65" x2="130" y2="75" stroke="#a855f7" stroke-width="2" opacity="0.6"/>
    <line x1="70" y1="70" x2="85" y2="90" stroke="#3b82f6" stroke-width="2" opacity="0.6"/>
    <line x1="85" y1="90" x2="115" y2="95" stroke="#a855f7" stroke-width="2" opacity="0.6"/>
    <line x1="100" y1="65" x2="115" y2="95" stroke="#3b82f6" stroke-width="2" opacity="0.6"/>
    
    <!-- Search magnifying glass -->
    <circle cx="140" cy="140" r="15" fill="none" stroke="#10b981" stroke-width="3"/>
    <line x1="151" y1="151" x2="165" y2="165" stroke="#10b981" stroke-width="3" stroke-linecap="round"/>
    
    <!-- Search query waves -->
    <path d="M30 140 Q50 130 70 140 Q90 150 110 140" fill="none" stroke="#10b981" stroke-width="2" opacity="0.7"/>
    <path d="M25 150 Q45 140 65 150 Q85 160 105 150" fill="none" stroke="#10b981" stroke-width="2" opacity="0.5"/>
  </g>
</svg> 